<svg width="900" height="712"
     xmlns="http://www.w3.org/2000/svg"
     xmlns:xlink="http://www.w3.org/1999/xlink">
  <rect width="900" height="712" fill="#282a36"/>
  
  <defs>
    <linearGradient id="area-fill" x1="0" y1="0" x2="0" y2="1">
      <stop offset="0%"   stop-color="#bd93f9" stop-opacity="0.35"/>
      <stop offset="100%" stop-color="#bd93f9" stop-opacity="0.02"/>
    </linearGradient>
    <linearGradient id="stats-gradient" x1="0" y1="0" x2="1" y2="0">
      <stop offset="0%" stop-color="#ff79c6" stop-opacity="0.15"/>
      <stop offset="100%" stop-color="#bd93f9" stop-opacity="0.05"/>
    </linearGradient>
    <filter id="glow">
      <feGaussianBlur stdDeviation="2.5" result="blur"/>
      <feMerge><feMergeNode in="blur"/><feMergeNode in="SourceGraphic"/></feMerge>
    </filter>
    <filter id="glow-sm">
      <feGaussianBlur stdDeviation="1.5" result="blur"/>
      <feMerge><feMergeNode in="blur"/><feMergeNode in="SourceGraphic"/></feMerge>
    </filter>
    <filter id="shadow">
      <feDropShadow dx="0" dy="2" stdDeviation="4" flood-color="#000" flood-opacity="0.3"/>
    </filter>
  </defs>

  <!-- Top Row: Stats (left) + Streak (right) -->
  <rect x="25" y="25" width="412" height="130" rx="12" fill="url(#stats-gradient)" stroke="#44475a" stroke-width="1" filter="url(#shadow)"/>
<text x="41" y="53" font-family="system-ui,sans-serif" font-size="14" font-weight="700" fill="#ff79c6">📊 Nurysso's Stats</text>
<line x1="41" y1="61" x2="421" y2="61" stroke="#44475a" stroke-width="0.5"/>
<svg x="45" y="67" width="14" height="14" viewBox="0 0 16 16"><path fill="#ffb86c" fill-rule="evenodd" d="M8 .25a.75.75 0 01.673.418l1.882 3.815 4.21.612a.75.75 0 01.416 1.279l-3.046 2.97.719 4.192a.75.75 0 01-1.088.791L8 12.347l-3.766 1.98a.75.75 0 01-1.088-.79l.72-4.194L.818 6.374a.75.75 0 01.416-1.28l4.21-.611L7.327.668A.75.75 0 018 .25z"/></svg>
<text x="63" y="79" font-family="system-ui,sans-serif" font-size="11" fill="#6272a4">Stars</text>
<text x="63" y="95" font-family="system-ui,sans-serif" font-size="13" font-weight="700" fill="#ffb86c">169</text>
<svg x="169" y="67" width="14" height="14" viewBox="0 0 16 16"><path fill="#8be9fd" fill-rule="evenodd" d="M5 3.25a.75.75 0 11-1.5 0 .75.75 0 011.5 0zm0 2.122a2.25 2.25 0 10-1.5 0v.878A2.25 2.25 0 005.75 8.5h1.5v2.128a2.251 2.251 0 101.5 0V8.5h1.5a2.25 2.25 0 002.25-2.25v-.878a2.25 2.25 0 10-1.5 0v.878a.75.75 0 01-.75.75h-4.5A.75.75 0 015 6.25v-.878z"/></svg>
<text x="187" y="79" font-family="system-ui,sans-serif" font-size="11" fill="#6272a4">Forks</text>
<text x="187" y="95" font-family="system-ui,sans-serif" font-size="13" font-weight="700" fill="#8be9fd">9</text>
<svg x="293" y="67" width="14" height="14" viewBox="0 0 16 16"><path fill="#50fa7b" fill-rule="evenodd" d="M1 2.5A2.5 2.5 0 013.5 0h8.75a.75.75 0 01.75.75v3.5a.75.75 0 01-1.5 0V1.5h-8a1 1 0 00-1 1v6.708A2.492 2.492 0 013.5 9h3.25a.75.75 0 010 1.5H3.5a1 1 0 100 2h5.75a.75.75 0 010 1.5H3.5A2.5 2.5 0 011 11.5v-9z"/></svg>
<text x="311" y="79" font-family="system-ui,sans-serif" font-size="11" fill="#6272a4">Contributions</text>
<text x="311" y="95" font-family="system-ui,sans-serif" font-size="13" font-weight="700" fill="#50fa7b">1,108</text>
<svg x="45" y="103" width="14" height="14" viewBox="0 0 16 16"><path fill="#bd93f9" fill-rule="evenodd" d="M1.679 7.932c.412-.621 1.242-1.75 2.366-2.717C5.175 4.242 6.527 3.5 8 3.5c1.473 0 2.824.742 3.955 1.715 1.124.967 1.954 2.096 2.366 2.717a.119.119 0 010 .136c-.412.621-1.242 1.75-2.366 2.717C10.825 11.758 9.473 12.5 8 12.5c-1.473 0-2.824-.742-3.955-1.715C2.92 9.818 2.09 8.69 1.679 8.068a.119.119 0 010-.136z"/></svg>
<text x="63" y="115" font-family="system-ui,sans-serif" font-size="11" fill="#6272a4">Views</text>
<text x="63" y="131" font-family="system-ui,sans-serif" font-size="13" font-weight="700" fill="#bd93f9">120</text>
<svg x="169" y="103" width="14" height="14" viewBox="0 0 16 16"><path fill="#ff79c6" fill-rule="evenodd" d="M2 2.5A2.5 2.5 0 014.5 0h8.75a.75.75 0 01.75.75v12.5a.75.75 0 01-.75.75h-2.5a.75.75 0 110-1.5h1.75v-2h-8a1 1 0 00-.714 1.7.75.75 0 01-1.072 1.05A2.495 2.495 0 012 11.5v-9z"/></svg>
<text x="187" y="115" font-family="system-ui,sans-serif" font-size="11" fill="#6272a4">Repositories</text>
<text x="187" y="131" font-family="system-ui,sans-serif" font-size="13" font-weight="700" fill="#ff79c6">11</text>
  <rect x="462" y="25" width="412" height="130" rx="12" fill="url(#stats-gradient)" stroke="#44475a" stroke-width="1" filter="url(#shadow)"/>
<text x="478" y="53" font-family="system-ui,sans-serif" font-size="14" font-weight="700" fill="#ff79c6">🔥 Streak</text>
<line x1="478" y1="61" x2="858" y2="61" stroke="#44475a" stroke-width="0.5"/>
<text x="540" y="97" font-family="system-ui,sans-serif" font-size="36" font-weight="800" fill="#ffb86c" text-anchor="middle" filter="url(#glow-sm)">31<animate attributeName="font-size" values="36;40;36" dur="2s" repeatCount="indefinite"/></text>
<text x="540" y="119" font-family="system-ui,sans-serif" font-size="11" fill="#6272a4" text-anchor="middle">Current</text>
<text x="540" y="135" font-family="system-ui,sans-serif" font-size="9" fill="#44475a" text-anchor="middle">days</text>
<line x1="602" y1="69" x2="602" y2="143" stroke="#44475a" stroke-width="0.5" opacity="0.5"/>
<text x="664" y="97" font-family="system-ui,sans-serif" font-size="28" font-weight="700" fill="#8be9fd" text-anchor="middle">31</text>
<text x="664" y="119" font-family="system-ui,sans-serif" font-size="11" fill="#6272a4" text-anchor="middle">Longest</text>
<text x="664" y="135" font-family="system-ui,sans-serif" font-size="9" fill="#44475a" text-anchor="middle">days</text>
<line x1="726" y1="69" x2="726" y2="143" stroke="#44475a" stroke-width="0.5" opacity="0.5"/>
<text x="788" y="97" font-family="system-ui,sans-serif" font-size="28" font-weight="700" fill="#50fa7b" text-anchor="middle">334</text>
<text x="788" y="119" font-family="system-ui,sans-serif" font-size="11" fill="#6272a4" text-anchor="middle">Year Total</text>
<text x="788" y="135" font-family="system-ui,sans-serif" font-size="9" fill="#44475a" text-anchor="middle">contrib</text>

  <!-- Middle: Contribution Graph -->
  <rect x="25" y="171" width="850" height="220" rx="12" fill="#1e1f29" stroke="#44475a" stroke-width="1" filter="url(#shadow)"/>
<text x="41" y="193" font-family="system-ui,sans-serif" font-size="14" font-weight="700" fill="#ff79c6">📈 Contribution Trends</text>
<text x="41" y="211" font-family="system-ui,sans-serif" font-size="11" fill="#6272a4">Last 30 days — 2026-05-24 to 2026-06-22</text>
<line x1="70" y1="361.0" x2="855" y2="361.0" stroke="#44475a" stroke-width="0.5" stroke-dasharray="4,4" opacity="0.5"/>
<text x="62" y="365.0" font-family="system-ui,sans-serif" font-size="9" fill="#6272a4" text-anchor="end">0</text>
<line x1="70" y1="321.0" x2="855" y2="321.0" stroke="#44475a" stroke-width="0.5" stroke-dasharray="4,4" opacity="0.5"/>
<text x="62" y="325.0" font-family="system-ui,sans-serif" font-size="9" fill="#6272a4" text-anchor="end">4</text>
<line x1="70" y1="281.0" x2="855" y2="281.0" stroke="#44475a" stroke-width="0.5" stroke-dasharray="4,4" opacity="0.5"/>
<text x="62" y="285.0" font-family="system-ui,sans-serif" font-size="9" fill="#6272a4" text-anchor="end">8</text>
<line x1="70" y1="241.0" x2="855" y2="241.0" stroke="#44475a" stroke-width="0.5" stroke-dasharray="4,4" opacity="0.5"/>
<text x="62" y="245.0" font-family="system-ui,sans-serif" font-size="9" fill="#6272a4" text-anchor="end">11</text>
<line x1="70" y1="201.0" x2="855" y2="201.0" stroke="#44475a" stroke-width="0.5" stroke-dasharray="4,4" opacity="0.5"/>
<text x="62" y="205.0" font-family="system-ui,sans-serif" font-size="9" fill="#6272a4" text-anchor="end">15</text>
<path d="M 70.0,339.7 C 83.5,339.7 83.5,329.0 97.1,329.0 C 110.6,329.0 110.6,350.3 124.1,350.3 C 137.7,350.3 137.7,329.0 151.2,329.0 C 164.7,329.0 164.7,350.3 178.3,350.3 C 191.8,350.3 191.8,329.0 205.3,329.0 C 218.9,329.0 218.9,350.3 232.4,350.3 C 245.9,350.3 245.9,350.3 259.5,350.3 C 273.0,350.3 273.0,307.7 286.6,307.7 C 300.1,307.7 300.1,350.3 313.6,350.3 C 327.2,350.3 327.2,297.0 340.7,297.0 C 354.2,297.0 354.2,297.0 367.8,297.0 C 381.3,297.0 381.3,350.3 394.8,350.3 C 408.4,350.3 408.4,233.0 421.9,233.0 C 435.4,233.0 435.4,339.7 449.0,339.7 C 462.5,339.7 462.5,286.3 476.0,286.3 C 489.6,286.3 489.6,286.3 503.1,286.3 C 516.6,286.3 516.6,275.7 530.2,275.7 C 543.7,275.7 543.7,350.3 557.2,350.3 C 570.8,350.3 570.8,350.3 584.3,350.3 C 597.8,350.3 597.8,350.3 611.4,350.3 C 624.9,350.3 624.9,350.3 638.4,350.3 C 652.0,350.3 652.0,329.0 665.5,329.0 C 679.1,329.0 679.1,329.0 692.6,329.0 C 706.1,329.0 706.1,307.7 719.7,307.7 C 733.2,307.7 733.2,329.0 746.7,329.0 C 760.3,329.0 760.3,350.3 773.8,350.3 C 787.3,350.3 787.3,329.0 800.9,329.0 C 814.4,329.0 814.4,243.7 827.9,243.7 C 841.5,243.7 841.5,329.0 855.0,329.0 L 855.0,361 L 70.0,361 Z" fill="url(#area-fill)" opacity="0">  <animate attributeName="opacity" from="0" to="1" dur="1s" begin="0.3s" fill="freeze"/></path>
<path d="M 70.0,339.7 C 83.5,339.7 83.5,329.0 97.1,329.0 C 110.6,329.0 110.6,350.3 124.1,350.3 C 137.7,350.3 137.7,329.0 151.2,329.0 C 164.7,329.0 164.7,350.3 178.3,350.3 C 191.8,350.3 191.8,329.0 205.3,329.0 C 218.9,329.0 218.9,350.3 232.4,350.3 C 245.9,350.3 245.9,350.3 259.5,350.3 C 273.0,350.3 273.0,307.7 286.6,307.7 C 300.1,307.7 300.1,350.3 313.6,350.3 C 327.2,350.3 327.2,297.0 340.7,297.0 C 354.2,297.0 354.2,297.0 367.8,297.0 C 381.3,297.0 381.3,350.3 394.8,350.3 C 408.4,350.3 408.4,233.0 421.9,233.0 C 435.4,233.0 435.4,339.7 449.0,339.7 C 462.5,339.7 462.5,286.3 476.0,286.3 C 489.6,286.3 489.6,286.3 503.1,286.3 C 516.6,286.3 516.6,275.7 530.2,275.7 C 543.7,275.7 543.7,350.3 557.2,350.3 C 570.8,350.3 570.8,350.3 584.3,350.3 C 597.8,350.3 597.8,350.3 611.4,350.3 C 624.9,350.3 624.9,350.3 638.4,350.3 C 652.0,350.3 652.0,329.0 665.5,329.0 C 679.1,329.0 679.1,329.0 692.6,329.0 C 706.1,329.0 706.1,307.7 719.7,307.7 C 733.2,307.7 733.2,329.0 746.7,329.0 C 760.3,329.0 760.3,350.3 773.8,350.3 C 787.3,350.3 787.3,329.0 800.9,329.0 C 814.4,329.0 814.4,243.7 827.9,243.7 C 841.5,243.7 841.5,329.0 855.0,329.0" fill="none" stroke="#ff79c6" stroke-width="2.5" stroke-linejoin="round" filter="url(#glow)" stroke-dasharray="450" stroke-dashoffset="450">  <animate attributeName="stroke-dashoffset"   from="450" to="0" dur="1.5s" begin="0.5s" fill="freeze"/></path>
<circle cx="70.0" cy="339.7" r="6" fill="#ff79c6" opacity="0" filter="url(#glow)">  <animate attributeName="opacity" from="0" to="0.2"   dur="0.3s" begin="1.0s" fill="freeze"/></circle>
<g opacity="0">  <animate attributeName="opacity" from="0" to="1"   dur="0.3s" begin="1.0s" fill="freeze"/>  <circle cx="70.0" cy="339.7" r="3.5" fill="#282a36"   stroke="#50fa7b" stroke-width="2">    <animate attributeName="r" values="0;4;3.5" dur="0.4s"     begin="1.0s" fill="freeze"/>  </circle>  <circle cx="70.0" cy="339.7" r="2" fill="#50fa7b"/></g>
<circle cx="97.1" cy="329.0" r="6" fill="#ff79c6" opacity="0" filter="url(#glow)">  <animate attributeName="opacity" from="0" to="0.2"   dur="0.3s" begin="1.05s" fill="freeze"/></circle>
<g opacity="0">  <animate attributeName="opacity" from="0" to="1"   dur="0.3s" begin="1.05s" fill="freeze"/>  <circle cx="97.1" cy="329.0" r="3.5" fill="#282a36"   stroke="#50fa7b" stroke-width="2">    <animate attributeName="r" values="0;4;3.5" dur="0.4s"     begin="1.05s" fill="freeze"/>  </circle>  <circle cx="97.1" cy="329.0" r="2" fill="#50fa7b"/></g>
<circle cx="124.1" cy="350.3" r="6" fill="#ff79c6" opacity="0" filter="url(#glow)">  <animate attributeName="opacity" from="0" to="0.2"   dur="0.3s" begin="1.1s" fill="freeze"/></circle>
<g opacity="0">  <animate attributeName="opacity" from="0" to="1"   dur="0.3s" begin="1.1s" fill="freeze"/>  <circle cx="124.1" cy="350.3" r="3.5" fill="#282a36"   stroke="#50fa7b" stroke-width="2">    <animate attributeName="r" values="0;4;3.5" dur="0.4s"     begin="1.1s" fill="freeze"/>  </circle>  <circle cx="124.1" cy="350.3" r="2" fill="#50fa7b"/></g>
<circle cx="151.2" cy="329.0" r="6" fill="#ff79c6" opacity="0" filter="url(#glow)">  <animate attributeName="opacity" from="0" to="0.2"   dur="0.3s" begin="1.15s" fill="freeze"/></circle>
<g opacity="0">  <animate attributeName="opacity" from="0" to="1"   dur="0.3s" begin="1.15s" fill="freeze"/>  <circle cx="151.2" cy="329.0" r="3.5" fill="#282a36"   stroke="#50fa7b" stroke-width="2">    <animate attributeName="r" values="0;4;3.5" dur="0.4s"     begin="1.15s" fill="freeze"/>  </circle>  <circle cx="151.2" cy="329.0" r="2" fill="#50fa7b"/></g>
<circle cx="178.3" cy="350.3" r="6" fill="#ff79c6" opacity="0" filter="url(#glow)">  <animate attributeName="opacity" from="0" to="0.2"   dur="0.3s" begin="1.2s" fill="freeze"/></circle>
<g opacity="0">  <animate attributeName="opacity" from="0" to="1"   dur="0.3s" begin="1.2s" fill="freeze"/>  <circle cx="178.3" cy="350.3" r="3.5" fill="#282a36"   stroke="#50fa7b" stroke-width="2">    <animate attributeName="r" values="0;4;3.5" dur="0.4s"     begin="1.2s" fill="freeze"/>  </circle>  <circle cx="178.3" cy="350.3" r="2" fill="#50fa7b"/></g>
<circle cx="205.3" cy="329.0" r="6" fill="#ff79c6" opacity="0" filter="url(#glow)">  <animate attributeName="opacity" from="0" to="0.2"   dur="0.3s" begin="1.25s" fill="freeze"/></circle>
<g opacity="0">  <animate attributeName="opacity" from="0" to="1"   dur="0.3s" begin="1.25s" fill="freeze"/>  <circle cx="205.3" cy="329.0" r="3.5" fill="#282a36"   stroke="#50fa7b" stroke-width="2">    <animate attributeName="r" values="0;4;3.5" dur="0.4s"     begin="1.25s" fill="freeze"/>  </circle>  <circle cx="205.3" cy="329.0" r="2" fill="#50fa7b"/></g>
<circle cx="232.4" cy="350.3" r="6" fill="#ff79c6" opacity="0" filter="url(#glow)">  <animate attributeName="opacity" from="0" to="0.2"   dur="0.3s" begin="1.3s" fill="freeze"/></circle>
<g opacity="0">  <animate attributeName="opacity" from="0" to="1"   dur="0.3s" begin="1.3s" fill="freeze"/>  <circle cx="232.4" cy="350.3" r="3.5" fill="#282a36"   stroke="#50fa7b" stroke-width="2">    <animate attributeName="r" values="0;4;3.5" dur="0.4s"     begin="1.3s" fill="freeze"/>  </circle>  <circle cx="232.4" cy="350.3" r="2" fill="#50fa7b"/></g>
<circle cx="259.5" cy="350.3" r="6" fill="#ff79c6" opacity="0" filter="url(#glow)">  <animate attributeName="opacity" from="0" to="0.2"   dur="0.3s" begin="1.35s" fill="freeze"/></circle>
<g opacity="0">  <animate attributeName="opacity" from="0" to="1"   dur="0.3s" begin="1.35s" fill="freeze"/>  <circle cx="259.5" cy="350.3" r="3.5" fill="#282a36"   stroke="#50fa7b" stroke-width="2">    <animate attributeName="r" values="0;4;3.5" dur="0.4s"     begin="1.35s" fill="freeze"/>  </circle>  <circle cx="259.5" cy="350.3" r="2" fill="#50fa7b"/></g>
<circle cx="286.6" cy="307.7" r="6" fill="#ff79c6" opacity="0" filter="url(#glow)">  <animate attributeName="opacity" from="0" to="0.2"   dur="0.3s" begin="1.4s" fill="freeze"/></circle>
<g opacity="0">  <animate attributeName="opacity" from="0" to="1"   dur="0.3s" begin="1.4s" fill="freeze"/>  <circle cx="286.6" cy="307.7" r="3.5" fill="#282a36"   stroke="#50fa7b" stroke-width="2">    <animate attributeName="r" values="0;4;3.5" dur="0.4s"     begin="1.4s" fill="freeze"/>  </circle>  <circle cx="286.6" cy="307.7" r="2" fill="#50fa7b"/></g>
<circle cx="313.6" cy="350.3" r="6" fill="#ff79c6" opacity="0" filter="url(#glow)">  <animate attributeName="opacity" from="0" to="0.2"   dur="0.3s" begin="1.45s" fill="freeze"/></circle>
<g opacity="0">  <animate attributeName="opacity" from="0" to="1"   dur="0.3s" begin="1.45s" fill="freeze"/>  <circle cx="313.6" cy="350.3" r="3.5" fill="#282a36"   stroke="#50fa7b" stroke-width="2">    <animate attributeName="r" values="0;4;3.5" dur="0.4s"     begin="1.45s" fill="freeze"/>  </circle>  <circle cx="313.6" cy="350.3" r="2" fill="#50fa7b"/></g>
<circle cx="340.7" cy="297.0" r="6" fill="#ff79c6" opacity="0" filter="url(#glow)">  <animate attributeName="opacity" from="0" to="0.2"   dur="0.3s" begin="1.5s" fill="freeze"/></circle>
<g opacity="0">  <animate attributeName="opacity" from="0" to="1"   dur="0.3s" begin="1.5s" fill="freeze"/>  <circle cx="340.7" cy="297.0" r="3.5" fill="#282a36"   stroke="#50fa7b" stroke-width="2">    <animate attributeName="r" values="0;4;3.5" dur="0.4s"     begin="1.5s" fill="freeze"/>  </circle>  <circle cx="340.7" cy="297.0" r="2" fill="#50fa7b"/></g>
<circle cx="367.8" cy="297.0" r="6" fill="#ff79c6" opacity="0" filter="url(#glow)">  <animate attributeName="opacity" from="0" to="0.2"   dur="0.3s" begin="1.55s" fill="freeze"/></circle>
<g opacity="0">  <animate attributeName="opacity" from="0" to="1"   dur="0.3s" begin="1.55s" fill="freeze"/>  <circle cx="367.8" cy="297.0" r="3.5" fill="#282a36"   stroke="#50fa7b" stroke-width="2">    <animate attributeName="r" values="0;4;3.5" dur="0.4s"     begin="1.55s" fill="freeze"/>  </circle>  <circle cx="367.8" cy="297.0" r="2" fill="#50fa7b"/></g>
<circle cx="394.8" cy="350.3" r="6" fill="#ff79c6" opacity="0" filter="url(#glow)">  <animate attributeName="opacity" from="0" to="0.2"   dur="0.3s" begin="1.6s" fill="freeze"/></circle>
<g opacity="0">  <animate attributeName="opacity" from="0" to="1"   dur="0.3s" begin="1.6s" fill="freeze"/>  <circle cx="394.8" cy="350.3" r="3.5" fill="#282a36"   stroke="#50fa7b" stroke-width="2">    <animate attributeName="r" values="0;4;3.5" dur="0.4s"     begin="1.6s" fill="freeze"/>  </circle>  <circle cx="394.8" cy="350.3" r="2" fill="#50fa7b"/></g>
<circle cx="421.9" cy="233.0" r="6" fill="#ff79c6" opacity="0" filter="url(#glow)">  <animate attributeName="opacity" from="0" to="0.2"   dur="0.3s" begin="1.65s" fill="freeze"/></circle>
<g opacity="0">  <animate attributeName="opacity" from="0" to="1"   dur="0.3s" begin="1.65s" fill="freeze"/>  <circle cx="421.9" cy="233.0" r="3.5" fill="#282a36"   stroke="#50fa7b" stroke-width="2">    <animate attributeName="r" values="0;4;3.5" dur="0.4s"     begin="1.65s" fill="freeze"/>  </circle>  <circle cx="421.9" cy="233.0" r="2" fill="#50fa7b"/></g>
<circle cx="449.0" cy="339.7" r="6" fill="#ff79c6" opacity="0" filter="url(#glow)">  <animate attributeName="opacity" from="0" to="0.2"   dur="0.3s" begin="1.7000000000000002s" fill="freeze"/></circle>
<g opacity="0">  <animate attributeName="opacity" from="0" to="1"   dur="0.3s" begin="1.7000000000000002s" fill="freeze"/>  <circle cx="449.0" cy="339.7" r="3.5" fill="#282a36"   stroke="#50fa7b" stroke-width="2">    <animate attributeName="r" values="0;4;3.5" dur="0.4s"     begin="1.7000000000000002s" fill="freeze"/>  </circle>  <circle cx="449.0" cy="339.7" r="2" fill="#50fa7b"/></g>
<circle cx="476.0" cy="286.3" r="6" fill="#ff79c6" opacity="0" filter="url(#glow)">  <animate attributeName="opacity" from="0" to="0.2"   dur="0.3s" begin="1.75s" fill="freeze"/></circle>
<g opacity="0">  <animate attributeName="opacity" from="0" to="1"   dur="0.3s" begin="1.75s" fill="freeze"/>  <circle cx="476.0" cy="286.3" r="3.5" fill="#282a36"   stroke="#50fa7b" stroke-width="2">    <animate attributeName="r" values="0;4;3.5" dur="0.4s"     begin="1.75s" fill="freeze"/>  </circle>  <circle cx="476.0" cy="286.3" r="2" fill="#50fa7b"/></g>
<circle cx="503.1" cy="286.3" r="6" fill="#ff79c6" opacity="0" filter="url(#glow)">  <animate attributeName="opacity" from="0" to="0.2"   dur="0.3s" begin="1.8s" fill="freeze"/></circle>
<g opacity="0">  <animate attributeName="opacity" from="0" to="1"   dur="0.3s" begin="1.8s" fill="freeze"/>  <circle cx="503.1" cy="286.3" r="3.5" fill="#282a36"   stroke="#50fa7b" stroke-width="2">    <animate attributeName="r" values="0;4;3.5" dur="0.4s"     begin="1.8s" fill="freeze"/>  </circle>  <circle cx="503.1" cy="286.3" r="2" fill="#50fa7b"/></g>
<circle cx="530.2" cy="275.7" r="6" fill="#ff79c6" opacity="0" filter="url(#glow)">  <animate attributeName="opacity" from="0" to="0.2"   dur="0.3s" begin="1.85s" fill="freeze"/></circle>
<g opacity="0">  <animate attributeName="opacity" from="0" to="1"   dur="0.3s" begin="1.85s" fill="freeze"/>  <circle cx="530.2" cy="275.7" r="3.5" fill="#282a36"   stroke="#50fa7b" stroke-width="2">    <animate attributeName="r" values="0;4;3.5" dur="0.4s"     begin="1.85s" fill="freeze"/>  </circle>  <circle cx="530.2" cy="275.7" r="2" fill="#50fa7b"/></g>
<circle cx="557.2" cy="350.3" r="6" fill="#ff79c6" opacity="0" filter="url(#glow)">  <animate attributeName="opacity" from="0" to="0.2"   dur="0.3s" begin="1.9s" fill="freeze"/></circle>
<g opacity="0">  <animate attributeName="opacity" from="0" to="1"   dur="0.3s" begin="1.9s" fill="freeze"/>  <circle cx="557.2" cy="350.3" r="3.5" fill="#282a36"   stroke="#50fa7b" stroke-width="2">    <animate attributeName="r" values="0;4;3.5" dur="0.4s"     begin="1.9s" fill="freeze"/>  </circle>  <circle cx="557.2" cy="350.3" r="2" fill="#50fa7b"/></g>
<circle cx="584.3" cy="350.3" r="6" fill="#ff79c6" opacity="0" filter="url(#glow)">  <animate attributeName="opacity" from="0" to="0.2"   dur="0.3s" begin="1.9500000000000002s" fill="freeze"/></circle>
<g opacity="0">  <animate attributeName="opacity" from="0" to="1"   dur="0.3s" begin="1.9500000000000002s" fill="freeze"/>  <circle cx="584.3" cy="350.3" r="3.5" fill="#282a36"   stroke="#50fa7b" stroke-width="2">    <animate attributeName="r" values="0;4;3.5" dur="0.4s"     begin="1.9500000000000002s" fill="freeze"/>  </circle>  <circle cx="584.3" cy="350.3" r="2" fill="#50fa7b"/></g>
<circle cx="611.4" cy="350.3" r="6" fill="#ff79c6" opacity="0" filter="url(#glow)">  <animate attributeName="opacity" from="0" to="0.2"   dur="0.3s" begin="2.0s" fill="freeze"/></circle>
<g opacity="0">  <animate attributeName="opacity" from="0" to="1"   dur="0.3s" begin="2.0s" fill="freeze"/>  <circle cx="611.4" cy="350.3" r="3.5" fill="#282a36"   stroke="#50fa7b" stroke-width="2">    <animate attributeName="r" values="0;4;3.5" dur="0.4s"     begin="2.0s" fill="freeze"/>  </circle>  <circle cx="611.4" cy="350.3" r="2" fill="#50fa7b"/></g>
<circle cx="638.4" cy="350.3" r="6" fill="#ff79c6" opacity="0" filter="url(#glow)">  <animate attributeName="opacity" from="0" to="0.2"   dur="0.3s" begin="2.05s" fill="freeze"/></circle>
<g opacity="0">  <animate attributeName="opacity" from="0" to="1"   dur="0.3s" begin="2.05s" fill="freeze"/>  <circle cx="638.4" cy="350.3" r="3.5" fill="#282a36"   stroke="#50fa7b" stroke-width="2">    <animate attributeName="r" values="0;4;3.5" dur="0.4s"     begin="2.05s" fill="freeze"/>  </circle>  <circle cx="638.4" cy="350.3" r="2" fill="#50fa7b"/></g>
<circle cx="665.5" cy="329.0" r="6" fill="#ff79c6" opacity="0" filter="url(#glow)">  <animate attributeName="opacity" from="0" to="0.2"   dur="0.3s" begin="2.1s" fill="freeze"/></circle>
<g opacity="0">  <animate attributeName="opacity" from="0" to="1"   dur="0.3s" begin="2.1s" fill="freeze"/>  <circle cx="665.5" cy="329.0" r="3.5" fill="#282a36"   stroke="#50fa7b" stroke-width="2">    <animate attributeName="r" values="0;4;3.5" dur="0.4s"     begin="2.1s" fill="freeze"/>  </circle>  <circle cx="665.5" cy="329.0" r="2" fill="#50fa7b"/></g>
<circle cx="692.6" cy="329.0" r="6" fill="#ff79c6" opacity="0" filter="url(#glow)">  <animate attributeName="opacity" from="0" to="0.2"   dur="0.3s" begin="2.1500000000000004s" fill="freeze"/></circle>
<g opacity="0">  <animate attributeName="opacity" from="0" to="1"   dur="0.3s" begin="2.1500000000000004s" fill="freeze"/>  <circle cx="692.6" cy="329.0" r="3.5" fill="#282a36"   stroke="#50fa7b" stroke-width="2">    <animate attributeName="r" values="0;4;3.5" dur="0.4s"     begin="2.1500000000000004s" fill="freeze"/>  </circle>  <circle cx="692.6" cy="329.0" r="2" fill="#50fa7b"/></g>
<circle cx="719.7" cy="307.7" r="6" fill="#ff79c6" opacity="0" filter="url(#glow)">  <animate attributeName="opacity" from="0" to="0.2"   dur="0.3s" begin="2.2s" fill="freeze"/></circle>
<g opacity="0">  <animate attributeName="opacity" from="0" to="1"   dur="0.3s" begin="2.2s" fill="freeze"/>  <circle cx="719.7" cy="307.7" r="3.5" fill="#282a36"   stroke="#50fa7b" stroke-width="2">    <animate attributeName="r" values="0;4;3.5" dur="0.4s"     begin="2.2s" fill="freeze"/>  </circle>  <circle cx="719.7" cy="307.7" r="2" fill="#50fa7b"/></g>
<circle cx="746.7" cy="329.0" r="6" fill="#ff79c6" opacity="0" filter="url(#glow)">  <animate attributeName="opacity" from="0" to="0.2"   dur="0.3s" begin="2.25s" fill="freeze"/></circle>
<g opacity="0">  <animate attributeName="opacity" from="0" to="1"   dur="0.3s" begin="2.25s" fill="freeze"/>  <circle cx="746.7" cy="329.0" r="3.5" fill="#282a36"   stroke="#50fa7b" stroke-width="2">    <animate attributeName="r" values="0;4;3.5" dur="0.4s"     begin="2.25s" fill="freeze"/>  </circle>  <circle cx="746.7" cy="329.0" r="2" fill="#50fa7b"/></g>
<circle cx="773.8" cy="350.3" r="6" fill="#ff79c6" opacity="0" filter="url(#glow)">  <animate attributeName="opacity" from="0" to="0.2"   dur="0.3s" begin="2.3s" fill="freeze"/></circle>
<g opacity="0">  <animate attributeName="opacity" from="0" to="1"   dur="0.3s" begin="2.3s" fill="freeze"/>  <circle cx="773.8" cy="350.3" r="3.5" fill="#282a36"   stroke="#50fa7b" stroke-width="2">    <animate attributeName="r" values="0;4;3.5" dur="0.4s"     begin="2.3s" fill="freeze"/>  </circle>  <circle cx="773.8" cy="350.3" r="2" fill="#50fa7b"/></g>
<circle cx="800.9" cy="329.0" r="6" fill="#ff79c6" opacity="0" filter="url(#glow)">  <animate attributeName="opacity" from="0" to="0.2"   dur="0.3s" begin="2.35s" fill="freeze"/></circle>
<g opacity="0">  <animate attributeName="opacity" from="0" to="1"   dur="0.3s" begin="2.35s" fill="freeze"/>  <circle cx="800.9" cy="329.0" r="3.5" fill="#282a36"   stroke="#50fa7b" stroke-width="2">    <animate attributeName="r" values="0;4;3.5" dur="0.4s"     begin="2.35s" fill="freeze"/>  </circle>  <circle cx="800.9" cy="329.0" r="2" fill="#50fa7b"/></g>
<circle cx="827.9" cy="243.7" r="6" fill="#ff79c6" opacity="0" filter="url(#glow)">  <animate attributeName="opacity" from="0" to="0.2"   dur="0.3s" begin="2.4000000000000004s" fill="freeze"/></circle>
<g opacity="0">  <animate attributeName="opacity" from="0" to="1"   dur="0.3s" begin="2.4000000000000004s" fill="freeze"/>  <circle cx="827.9" cy="243.7" r="3.5" fill="#282a36"   stroke="#50fa7b" stroke-width="2">    <animate attributeName="r" values="0;4;3.5" dur="0.4s"     begin="2.4000000000000004s" fill="freeze"/>  </circle>  <circle cx="827.9" cy="243.7" r="2" fill="#50fa7b"/></g>
<circle cx="855.0" cy="329.0" r="6" fill="#ff79c6" opacity="0" filter="url(#glow)">  <animate attributeName="opacity" from="0" to="0.2"   dur="0.3s" begin="2.45s" fill="freeze"/></circle>
<g opacity="0">  <animate attributeName="opacity" from="0" to="1"   dur="0.3s" begin="2.45s" fill="freeze"/>  <circle cx="855.0" cy="329.0" r="3.5" fill="#282a36"   stroke="#50fa7b" stroke-width="2">    <animate attributeName="r" values="0;4;3.5" dur="0.4s"     begin="2.45s" fill="freeze"/>  </circle>  <circle cx="855.0" cy="329.0" r="2" fill="#50fa7b"/></g>
<text x="70.0" y="383" font-family="system-ui,sans-serif" font-size="9" fill="#6272a4" text-anchor="middle">May 24</text>
<text x="205.3" y="383" font-family="system-ui,sans-serif" font-size="9" fill="#6272a4" text-anchor="middle">May 29</text>
<text x="340.7" y="383" font-family="system-ui,sans-serif" font-size="9" fill="#6272a4" text-anchor="middle">Jun 03</text>
<text x="476.0" y="383" font-family="system-ui,sans-serif" font-size="9" fill="#6272a4" text-anchor="middle">Jun 08</text>
<text x="611.4" y="383" font-family="system-ui,sans-serif" font-size="9" fill="#6272a4" text-anchor="middle">Jun 13</text>
<text x="746.7" y="383" font-family="system-ui,sans-serif" font-size="9" fill="#6272a4" text-anchor="middle">Jun 18</text>
<text x="855.0" y="383" font-family="system-ui,sans-serif" font-size="9" fill="#6272a4" text-anchor="middle">Jun 22</text>
<text x="855.0" y="405" font-family="system-ui,sans-serif" font-size="8" fill="#ff79c6" text-anchor="middle" font-weight="600">Today</text>

  <!-- Bottom: Languages -->
  <rect x="25" y="407" width="850" height="280" rx="12" fill="#1e1f29" stroke="#44475a" stroke-width="1" filter="url(#shadow)"/>
<text x="450" y="429" font-family="system-ui,sans-serif" font-size="14" font-weight="700" fill="#ff79c6" text-anchor="middle">💻 Languages by Commits</text>
<line x1="41" y1="437" x2="859" y2="437" stroke="#44475a" stroke-width="0.5"/>
<rect x="41" y="451" width="818" height="14" rx="7" fill="#44475a" opacity="0.3"/>
<rect x="41" y="451" width="0" height="14" rx="3" fill="#00ADD8" opacity="0.9">  <animate attributeName="width" from="0" to="269"   dur="0.8s" begin="0.0s" fill="freeze"   calcMode="spline" keySplines="0.4 0 0.2 1"/></rect>
<rect x="310" y="451" width="0" height="14" rx="3" fill="#dea584" opacity="0.9">  <animate attributeName="width" from="0" to="181"   dur="0.8s" begin="0.08s" fill="freeze"   calcMode="spline" keySplines="0.4 0 0.2 1"/></rect>
<rect x="491" y="451" width="0" height="14" rx="3" fill="#89e051" opacity="0.9">  <animate attributeName="width" from="0" to="141"   dur="0.8s" begin="0.16s" fill="freeze"   calcMode="spline" keySplines="0.4 0 0.2 1"/></rect>
<rect x="632" y="451" width="0" height="14" rx="3" fill="#2b7489" opacity="0.9">  <animate attributeName="width" from="0" to="72"   dur="0.8s" begin="0.24s" fill="freeze"   calcMode="spline" keySplines="0.4 0 0.2 1"/></rect>
<rect x="704" y="451" width="0" height="14" rx="3" fill="#8b949e" opacity="0.9">  <animate attributeName="width" from="0" to="56"   dur="0.8s" begin="0.32s" fill="freeze"   calcMode="spline" keySplines="0.4 0 0.2 1"/></rect>
<rect x="760" y="451" width="0" height="14" rx="3" fill="#3572A5" opacity="0.9">  <animate attributeName="width" from="0" to="50"   dur="0.8s" begin="0.4s" fill="freeze"   calcMode="spline" keySplines="0.4 0 0.2 1"/></rect>
<rect x="810" y="451" width="0" height="14" rx="3" fill="#563d7c" opacity="0.9">  <animate attributeName="width" from="0" to="14"   dur="0.8s" begin="0.48s" fill="freeze"   calcMode="spline" keySplines="0.4 0 0.2 1"/></rect>
<rect x="824" y="451" width="0" height="14" rx="3" fill="#8b949e" opacity="0.9">  <animate attributeName="width" from="0" to="12"   dur="0.8s" begin="0.56s" fill="freeze"   calcMode="spline" keySplines="0.4 0 0.2 1"/></rect>
<rect x="836" y="451" width="0" height="14" rx="3" fill="#427819" opacity="0.9">  <animate attributeName="width" from="0" to="11"   dur="0.8s" begin="0.64s" fill="freeze"   calcMode="spline" keySplines="0.4 0 0.2 1"/></rect>
<rect x="847" y="451" width="0" height="14" rx="3" fill="#f1e05a" opacity="0.9">  <animate attributeName="width" from="0" to="8"   dur="0.8s" begin="0.72s" fill="freeze"   calcMode="spline" keySplines="0.4 0 0.2 1"/></rect>
<g opacity="0">  <animate attributeName="opacity" from="0" to="1"   dur="0.3s" begin="0.5s" fill="freeze"/>  <circle cx="47" cy="479" r="6" fill="#00ADD8"   stroke="#1e1f29" stroke-width="1.5"/>  <text x="59" y="483" font-family="system-ui,sans-serif"   font-size="12" fill="#f8f8f2" font-weight="500">Go</text>  <text x="446" y="483" font-family="system-ui,sans-serif"   font-size="12" fill="#50fa7b" text-anchor="end" font-weight="600">32.9%</text></g>
<g opacity="0">  <animate attributeName="opacity" from="0" to="1"   dur="0.3s" begin="0.58s" fill="freeze"/>  <circle cx="456" cy="479" r="6" fill="#dea584"   stroke="#1e1f29" stroke-width="1.5"/>  <text x="468" y="483" font-family="system-ui,sans-serif"   font-size="12" fill="#f8f8f2" font-weight="500">Rust</text>  <text x="855" y="483" font-family="system-ui,sans-serif"   font-size="12" fill="#50fa7b" text-anchor="end" font-weight="600">22.1%</text></g>
<g opacity="0">  <animate attributeName="opacity" from="0" to="1"   dur="0.3s" begin="0.66s" fill="freeze"/>  <circle cx="47" cy="503" r="6" fill="#89e051"   stroke="#1e1f29" stroke-width="1.5"/>  <text x="59" y="507" font-family="system-ui,sans-serif"   font-size="12" fill="#f8f8f2" font-weight="500">Shell</text>  <text x="446" y="507" font-family="system-ui,sans-serif"   font-size="12" fill="#50fa7b" text-anchor="end" font-weight="600">17.3%</text></g>
<g opacity="0">  <animate attributeName="opacity" from="0" to="1"   dur="0.3s" begin="0.74s" fill="freeze"/>  <circle cx="456" cy="503" r="6" fill="#2b7489"   stroke="#1e1f29" stroke-width="1.5"/>  <text x="468" y="507" font-family="system-ui,sans-serif"   font-size="12" fill="#f8f8f2" font-weight="500">TypeScript</text>  <text x="855" y="507" font-family="system-ui,sans-serif"   font-size="12" fill="#50fa7b" text-anchor="end" font-weight="600">8.9%</text></g>
<g opacity="0">  <animate attributeName="opacity" from="0" to="1"   dur="0.3s" begin="0.8200000000000001s" fill="freeze"/>  <circle cx="47" cy="527" r="6" fill="#8b949e"   stroke="#1e1f29" stroke-width="1.5"/>  <text x="59" y="531" font-family="system-ui,sans-serif"   font-size="12" fill="#f8f8f2" font-weight="500">QML</text>  <text x="446" y="531" font-family="system-ui,sans-serif"   font-size="12" fill="#50fa7b" text-anchor="end" font-weight="600">6.9%</text></g>
<g opacity="0">  <animate attributeName="opacity" from="0" to="1"   dur="0.3s" begin="0.9s" fill="freeze"/>  <circle cx="456" cy="527" r="6" fill="#3572A5"   stroke="#1e1f29" stroke-width="1.5"/>  <text x="468" y="531" font-family="system-ui,sans-serif"   font-size="12" fill="#f8f8f2" font-weight="500">Python</text>  <text x="855" y="531" font-family="system-ui,sans-serif"   font-size="12" fill="#50fa7b" text-anchor="end" font-weight="600">6.2%</text></g>
<g opacity="0">  <animate attributeName="opacity" from="0" to="1"   dur="0.3s" begin="0.98s" fill="freeze"/>  <circle cx="47" cy="551" r="6" fill="#563d7c"   stroke="#1e1f29" stroke-width="1.5"/>  <text x="59" y="555" font-family="system-ui,sans-serif"   font-size="12" fill="#f8f8f2" font-weight="500">CSS</text>  <text x="446" y="555" font-family="system-ui,sans-serif"   font-size="12" fill="#50fa7b" text-anchor="end" font-weight="600">1.8%</text></g>
<g opacity="0">  <animate attributeName="opacity" from="0" to="1"   dur="0.3s" begin="1.06s" fill="freeze"/>  <circle cx="456" cy="551" r="6" fill="#8b949e"   stroke="#1e1f29" stroke-width="1.5"/>  <text x="468" y="555" font-family="system-ui,sans-serif"   font-size="12" fill="#f8f8f2" font-weight="500">PowerShell</text>  <text x="855" y="555" font-family="system-ui,sans-serif"   font-size="12" fill="#50fa7b" text-anchor="end" font-weight="600">1.5%</text></g>
<g opacity="0">  <animate attributeName="opacity" from="0" to="1"   dur="0.3s" begin="1.1400000000000001s" fill="freeze"/>  <circle cx="47" cy="575" r="6" fill="#427819"   stroke="#1e1f29" stroke-width="1.5"/>  <text x="59" y="579" font-family="system-ui,sans-serif"   font-size="12" fill="#f8f8f2" font-weight="500">Makefile</text>  <text x="446" y="579" font-family="system-ui,sans-serif"   font-size="12" fill="#50fa7b" text-anchor="end" font-weight="600">1.4%</text></g>
<g opacity="0">  <animate attributeName="opacity" from="0" to="1"   dur="0.3s" begin="1.22s" fill="freeze"/>  <circle cx="456" cy="575" r="6" fill="#f1e05a"   stroke="#1e1f29" stroke-width="1.5"/>  <text x="468" y="579" font-family="system-ui,sans-serif"   font-size="12" fill="#f8f8f2" font-weight="500">JavaScript</text>  <text x="855" y="579" font-family="system-ui,sans-serif"   font-size="12" fill="#50fa7b" text-anchor="end" font-weight="600">1.0%</text></g>
<g opacity="0">  <animate attributeName="opacity" from="0" to="1"   dur="0.3s" begin="1.3s" fill="freeze"/>  <circle cx="47" cy="599" r="6" fill="#e34c26"   stroke="#1e1f29" stroke-width="1.5"/>  <text x="59" y="603" font-family="system-ui,sans-serif"   font-size="12" fill="#f8f8f2" font-weight="500">HTML</text>  <text x="446" y="603" font-family="system-ui,sans-serif"   font-size="12" fill="#50fa7b" text-anchor="end" font-weight="600">0.0%</text></g>
<text x="450" y="673" font-family="system-ui,sans-serif" font-size="11" fill="#6272a4" text-anchor="middle">Total Languages: 11  •  Top Language: Go</text>
</svg>